<svg width="21" height="18" viewBox="0 0 21 18" fill="none" xmlns="http://www.w3.org/2000/svg">
<path d="M15.1578 8H14.1578C13.8926 8 13.6383 8.10536 13.4507 8.29289C13.2632 8.48043 13.1578 8.73478 13.1578 9C13.1578 9.26522 13.2632 9.51957 13.4507 9.70711C13.6383 9.89464 13.8926 10 14.1578 10H15.1578C15.4231 10 15.6774 9.89464 15.8649 9.70711C16.0525 9.51957 16.1578 9.26522 16.1578 9C16.1578 8.73478 16.0525 8.48043 15.8649 8.29289C15.6774 8.10536 15.4231 8 15.1578 8ZM15.1578 12H14.1578C13.8926 12 13.6383 12.1054 13.4507 12.2929C13.2632 12.4804 13.1578 12.7348 13.1578 13C13.1578 13.2652 13.2632 13.5196 13.4507 13.7071C13.6383 13.8946 13.8926 14 14.1578 14H15.1578C15.4231 14 15.6774 13.8946 15.8649 13.7071C16.0525 13.5196 16.1578 13.2652 16.1578 13C16.1578 12.7348 16.0525 12.4804 15.8649 12.2929C15.6774 12.1054 15.4231 12 15.1578 12ZM9.15784 6H15.1578C15.4231 6 15.6774 5.89464 15.8649 5.70711C16.0525 5.51957 16.1578 5.26522 16.1578 5C16.1578 4.73478 16.0525 4.48043 15.8649 4.29289C15.6774 4.10536 15.4231 4 15.1578 4H9.15784C8.89262 4 8.63827 4.10536 8.45073 4.29289C8.26319 4.48043 8.15784 4.73478 8.15784 5C8.15784 5.26522 8.26319 5.51957 8.45073 5.70711C8.63827 5.89464 8.89262 6 9.15784 6ZM19.1578 0H5.15784C4.89262 0 4.63827 0.105357 4.45073 0.292893C4.26319 0.48043 4.15784 0.734784 4.15784 1V4H1.15784C0.89262 4 0.638266 4.10536 0.45073 4.29289C0.263194 4.48043 0.157837 4.73478 0.157837 5V15C0.157837 15.7956 0.473908 16.5587 1.03652 17.1213C1.59913 17.6839 2.36219 18 3.15784 18H16.1578C17.2187 18 18.2361 17.5786 18.9863 16.8284C19.7364 16.0783 20.1578 15.0609 20.1578 14V1C20.1578 0.734784 20.0525 0.48043 19.8649 0.292893C19.6774 0.105357 19.4231 0 19.1578 0ZM4.15784 15C4.15784 15.2652 4.05248 15.5196 3.86494 15.7071C3.67741 15.8946 3.42305 16 3.15784 16C2.89262 16 2.63827 15.8946 2.45073 15.7071C2.26319 15.5196 2.15784 15.2652 2.15784 15V6H4.15784V15ZM18.1578 14C18.1578 14.5304 17.9471 15.0391 17.5721 15.4142C17.197 15.7893 16.6883 16 16.1578 16H5.97784C6.09426 15.6793 6.15513 15.3411 6.15784 15V2H18.1578V14ZM9.15784 10H10.1578C10.4231 10 10.6774 9.89464 10.8649 9.70711C11.0525 9.51957 11.1578 9.26522 11.1578 9C11.1578 8.73478 11.0525 8.48043 10.8649 8.29289C10.6774 8.10536 10.4231 8 10.1578 8H9.15784C8.89262 8 8.63827 8.10536 8.45073 8.29289C8.26319 8.48043 8.15784 8.73478 8.15784 9C8.15784 9.26522 8.26319 9.51957 8.45073 9.70711C8.63827 9.89464 8.89262 10 9.15784 10ZM9.15784 14H10.1578C10.4231 14 10.6774 13.8946 10.8649 13.7071C11.0525 13.5196 11.1578 13.2652 11.1578 13C11.1578 12.7348 11.0525 12.4804 10.8649 12.2929C10.6774 12.1054 10.4231 12 10.1578 12H9.15784C8.89262 12 8.63827 12.1054 8.45073 12.2929C8.26319 12.4804 8.15784 12.7348 8.15784 13C8.15784 13.2652 8.26319 13.5196 8.45073 13.7071C8.63827 13.8946 8.89262 14 9.15784 14Z" fill="#E96509"/>
</svg>
