<svg width="21" height="21" viewBox="0 0 21 21" fill="none" xmlns="http://www.w3.org/2000/svg">
<path d="M20.6133 9.85086C20.532 9.64116 20.4101 9.44958 20.2546 9.28711L11.7129 0.745449C11.5536 0.586166 11.3645 0.459817 11.1564 0.373614C10.9483 0.287411 10.7253 0.243042 10.5 0.243042C10.0451 0.243042 9.60877 0.423763 9.28708 0.745449C9.1278 0.904731 9.00145 1.09383 8.91525 1.30194C8.82904 1.51005 8.78468 1.73311 8.78468 1.95837C8.78468 2.4133 8.9654 2.8496 9.28708 3.17128L14.9246 8.7917H1.95833C1.50526 8.7917 1.07073 8.97168 0.75036 9.29206C0.429985 9.61243 0.25 10.047 0.25 10.5C0.25 10.9531 0.429985 11.3876 0.75036 11.708C1.07073 12.0284 1.50526 12.2084 1.95833 12.2084H14.9246L9.28708 17.8288C9.12696 17.9876 8.99987 18.1765 8.91314 18.3847C8.82642 18.5929 8.78176 18.8162 8.78176 19.0417C8.78176 19.2672 8.82642 19.4905 8.91314 19.6987C8.99987 19.9069 9.12696 20.0958 9.28708 20.2546C9.4459 20.4147 9.63484 20.5418 9.84301 20.6286C10.0512 20.7153 10.2745 20.7599 10.5 20.7599C10.7255 20.7599 10.9488 20.7153 11.157 20.6286C11.3652 20.5418 11.5541 20.4147 11.7129 20.2546L20.2546 11.7129C20.4101 11.5505 20.532 11.3589 20.6133 11.1492C20.7842 10.7333 20.7842 10.2668 20.6133 9.85086Z" fill="#05944B"/>
</svg>
