<svg width="21" height="22" viewBox="0 0 21 22" fill="none" xmlns="http://www.w3.org/2000/svg">
<path d="M14.5486 11.7099C15.529 10.9385 16.2445 9.8808 16.5958 8.68382C16.947 7.48684 16.9165 6.21015 16.5083 5.03135C16.1002 3.85255 15.3348 2.83027 14.3186 2.10674C13.3024 1.3832 12.086 0.994385 10.8386 0.994385C9.59111 0.994385 8.37467 1.3832 7.35849 2.10674C6.3423 2.83027 5.5769 3.85255 5.16877 5.03135C4.76064 6.21015 4.73007 7.48684 5.08132 8.68382C5.43257 9.8808 6.14817 10.9385 7.12856 11.7099C5.44864 12.3829 3.98285 13.4992 2.88745 14.9398C1.79206 16.3804 1.10812 18.0912 0.908559 19.8899C0.894113 20.0212 0.905675 20.1541 0.942584 20.2809C0.979493 20.4078 1.04103 20.5261 1.12367 20.6292C1.29058 20.8374 1.53334 20.9707 1.79856 20.9999C2.06378 21.0291 2.32972 20.9517 2.53788 20.7848C2.74605 20.6179 2.87938 20.3751 2.90856 20.1099C3.12814 18.1551 4.06025 16.3497 5.52678 15.0387C6.99331 13.7277 8.89146 13.0029 10.8586 13.0029C12.8257 13.0029 14.7238 13.7277 16.1903 15.0387C17.6569 16.3497 18.589 18.1551 18.8086 20.1099C18.8357 20.3556 18.953 20.5825 19.1377 20.7469C19.3223 20.9113 19.5613 21.0014 19.8086 20.9999H19.9186C20.1807 20.9697 20.4203 20.8372 20.5851 20.6311C20.75 20.4251 20.8267 20.1622 20.7986 19.8999C20.5981 18.0961 19.9104 16.3809 18.8094 14.9381C17.7084 13.4953 16.2355 12.3794 14.5486 11.7099ZM10.8386 10.9999C10.0474 10.9999 9.27407 10.7653 8.61628 10.3258C7.95848 9.88623 7.44579 9.26152 7.14304 8.53061C6.84029 7.79971 6.76108 6.99544 6.91542 6.21952C7.06976 5.4436 7.45072 4.73086 8.01013 4.17145C8.56954 3.61204 9.28227 3.23108 10.0582 3.07674C10.8341 2.9224 11.6384 3.00161 12.3693 3.30436C13.1002 3.60711 13.7249 4.1198 14.1644 4.7776C14.604 5.4354 14.8386 6.20876 14.8386 6.99988C14.8386 8.06075 14.4171 9.07816 13.667 9.82831C12.9168 10.5785 11.8994 10.9999 10.8386 10.9999Z" fill="white"/>
</svg>
