<svg width="21" height="22" viewBox="0 0 21 22" fill="none" xmlns="http://www.w3.org/2000/svg">
<path d="M19.4048 1.06012C18.688 0.936655 17.9621 0.873102 17.2348 0.870122C14.7532 0.868087 12.3233 1.57969 10.2348 2.92012C8.14094 1.59729 5.71144 0.903152 3.23479 0.920121C2.50743 0.923102 1.78159 0.986655 1.06479 1.11012C0.829994 1.1506 0.617368 1.27358 0.465201 1.45691C0.313033 1.64025 0.231324 1.87189 0.234788 2.11012V14.1101C0.232646 14.2571 0.262914 14.4027 0.323438 14.5366C0.383961 14.6705 0.473254 14.7894 0.584961 14.8849C0.696668 14.9803 0.828045 15.05 0.969743 15.089C1.11144 15.1279 1.25998 15.1351 1.40479 15.1101C2.83781 14.862 4.30599 14.9032 5.72285 15.2312C7.13972 15.5592 8.47661 16.1675 9.65479 17.0201L9.77479 17.0901H9.88479C9.99569 17.1363 10.1146 17.1601 10.2348 17.1601C10.3549 17.1601 10.4739 17.1363 10.5848 17.0901H10.6948L10.8148 17.0201C11.9847 16.1484 13.3178 15.5205 14.7349 15.1735C16.1521 14.8265 17.6244 14.7675 19.0648 15.0001C19.2096 15.0251 19.3581 15.0179 19.4998 14.979C19.6415 14.94 19.7729 14.8703 19.8846 14.7749C19.9963 14.6794 20.0856 14.5605 20.1461 14.4266C20.2067 14.2927 20.2369 14.1471 20.2348 14.0001V2.00012C20.2244 1.77228 20.1364 1.55483 19.9854 1.38386C19.8345 1.21289 19.6296 1.09866 19.4048 1.06012ZM9.23479 14.3501C7.38467 13.3768 5.32531 12.8688 3.23479 12.8701H2.23479V2.87012C2.56784 2.85093 2.90173 2.85093 3.23479 2.87012C5.36817 2.86776 7.455 3.49381 9.23479 4.67012V14.3501ZM18.2348 12.9101H17.2348C15.1443 12.9088 13.0849 13.4168 11.2348 14.3901V4.67012C13.0146 3.49381 15.1014 2.86776 17.2348 2.87012C17.5678 2.85093 17.9017 2.85093 18.2348 2.87012V12.9101ZM19.4048 17.0601C18.688 16.9367 17.9621 16.8731 17.2348 16.8701C14.7532 16.8681 12.3233 17.5797 10.2348 18.9201C8.1463 17.5797 5.71642 16.8681 3.23479 16.8701C2.50743 16.8731 1.78159 16.9367 1.06479 17.0601C0.934615 17.0808 0.80981 17.127 0.69755 17.196C0.58529 17.2651 0.487789 17.3557 0.410654 17.4625C0.33352 17.5694 0.278273 17.6905 0.248091 17.8188C0.21791 17.9471 0.213389 18.0801 0.234788 18.2101C0.285606 18.4698 0.437278 18.6988 0.656578 18.8468C0.875878 18.9949 1.14493 19.05 1.40479 19.0001C2.83781 18.752 4.30599 18.7932 5.72285 19.1212C7.13972 19.4492 8.47661 20.0575 9.65479 20.9101C9.82415 21.0307 10.0269 21.0955 10.2348 21.0955C10.4427 21.0955 10.6454 21.0307 10.8148 20.9101C11.993 20.0575 13.3299 19.4492 14.7467 19.1212C16.1636 18.7932 17.6318 18.752 19.0648 19.0001C19.3246 19.05 19.5937 18.9949 19.813 18.8468C20.0323 18.6988 20.184 18.4698 20.2348 18.2101C20.2562 18.0801 20.2517 17.9471 20.2215 17.8188C20.1913 17.6905 20.1361 17.5694 20.0589 17.4625C19.9818 17.3557 19.8843 17.2651 19.772 17.196C19.6598 17.127 19.535 17.0808 19.4048 17.0601Z" fill="white"/>
</svg>
