<svg width="21" height="20" viewBox="0 0 21 20" fill="none" xmlns="http://www.w3.org/2000/svg">
<path d="M18.368 11.0001C18.1481 11.0001 17.918 10.9301 17.698 10.8801C17.2525 10.7819 16.8147 10.6516 16.388 10.4901C15.9241 10.3213 15.4142 10.3301 14.9564 10.5147C14.4985 10.6993 14.1251 11.0467 13.908 11.4901L13.688 11.9401C12.7141 11.3983 11.819 10.7253 11.028 9.94011C10.2428 9.14913 9.56987 8.25411 9.02805 7.28011L9.44805 7.00011C9.89141 6.78303 10.2388 6.40964 10.4234 5.9518C10.6081 5.49396 10.6168 4.98402 10.448 4.52011C10.2893 4.09253 10.159 3.65491 10.058 3.21011C10.008 2.99011 9.96805 2.76011 9.93805 2.53011C9.81661 1.82573 9.44767 1.18785 8.89767 0.731352C8.34767 0.274849 7.65274 0.0297211 6.93805 0.0401122H3.93805C3.50708 0.0360657 3.0803 0.124926 2.68676 0.300643C2.29322 0.47636 1.94216 0.734808 1.65748 1.05839C1.3728 1.38198 1.16118 1.76311 1.03704 2.17583C0.91289 2.58855 0.879128 3.02317 0.938049 3.45011C1.47079 7.63949 3.38408 11.532 6.3757 14.5127C9.36732 17.4935 13.2668 19.3926 17.458 19.9101H17.838C18.5755 19.9112 19.2874 19.6406 19.838 19.1501C20.1544 18.8672 20.4071 18.5203 20.5795 18.1324C20.7519 17.7446 20.84 17.3245 20.838 16.9001V13.9001C20.8258 13.2055 20.5729 12.5367 20.1224 12.0078C19.6719 11.4789 19.0519 11.1227 18.368 11.0001ZM18.868 17.0001C18.8679 17.1421 18.8375 17.2824 18.7788 17.4117C18.7202 17.5411 18.6347 17.6564 18.528 17.7501C18.4166 17.8471 18.286 17.9195 18.1447 17.9626C18.0034 18.0057 17.8546 18.0185 17.708 18.0001C13.9629 17.5199 10.4843 15.8066 7.82077 13.1304C5.15724 10.4542 3.46046 6.96745 2.99805 3.22011C2.98213 3.07363 2.99608 2.92544 3.03905 2.7845C3.08202 2.64356 3.15312 2.5128 3.24805 2.40011C3.34176 2.29344 3.45711 2.20795 3.58643 2.14933C3.71574 2.09071 3.85606 2.06029 3.99805 2.06011H6.99805C7.2306 2.05494 7.45767 2.13099 7.64019 2.27518C7.82271 2.41937 7.94926 2.62268 7.99805 2.85011C8.03805 3.12345 8.08805 3.39345 8.14805 3.66011C8.26357 4.18726 8.41731 4.70529 8.60805 5.21011L7.20805 5.86011C7.08835 5.91503 6.98067 5.99306 6.89121 6.08971C6.80174 6.18636 6.73225 6.29973 6.68672 6.42331C6.64119 6.54689 6.62052 6.67824 6.6259 6.80983C6.63127 6.94142 6.66259 7.07066 6.71805 7.19011C8.15725 10.2729 10.6353 12.7509 13.718 14.1901C13.9615 14.2901 14.2346 14.2901 14.478 14.1901C14.6028 14.1455 14.7174 14.0766 14.8152 13.9873C14.9131 13.898 14.9922 13.7902 15.048 13.6701L15.668 12.2701C16.185 12.455 16.7126 12.6086 17.248 12.7301C17.5147 12.7901 17.7847 12.8401 18.058 12.8801C18.2855 12.9289 18.4888 13.0554 18.633 13.238C18.7772 13.4205 18.8532 13.6476 18.848 13.8801L18.868 17.0001Z" fill="white"/>
</svg>
